<svg xmlns="http://www.w3.org/2000/svg" width="59.384" height="97.082" viewBox="0 0 59.384 97.082"><defs><style>.a{fill:#0036d9;stroke:rgba(0,0,0,0);}</style></defs><g transform="translate(-258.896 -335.266)"><g transform="translate(259.396 410.716)"><path class="a" d="M265.45,432.4h-1.025c0,2.411-2.258,4.372-5.03,4.372v.89c2.772,0,5.03,1.961,5.03,4.372h1.025c0-2.411,2.256-4.372,5.03-4.372v-.89C267.706,436.776,265.45,434.815,265.45,432.4Zm-.513,7.517a5.75,5.75,0,0,0-3.107-2.7,5.76,5.76,0,0,0,3.107-2.7,5.761,5.761,0,0,0,3.107,2.7A5.751,5.751,0,0,0,264.937,439.921Z" transform="translate(-259.396 -432.404)"/></g><g transform="translate(297.355 361.319)"><path class="a" d="M314.394,368.714h-1.023c0,2.41-2.258,4.372-5.031,4.372v.889c2.773,0,5.031,1.961,5.031,4.373h1.023c0-2.412,2.257-4.373,5.031-4.373v-.889C316.651,373.086,314.394,371.124,314.394,368.714Zm-.513,7.517a5.755,5.755,0,0,0-3.107-2.7,5.747,5.747,0,0,0,3.107-2.7,5.756,5.756,0,0,0,3.108,2.7A5.764,5.764,0,0,0,313.881,376.231Z" transform="translate(-308.34 -368.714)"/></g><g transform="translate(295.538 335.766)"><path class="a" d="M318.144,335.766h-2.052a9.938,9.938,0,0,1-10.1,9.749V347.5a9.938,9.938,0,0,1,10.093,9.751h2.054a9.937,9.937,0,0,1,10.1-9.749v-1.984A9.94,9.94,0,0,1,318.144,335.766Zm-1.027,16.765a12.019,12.019,0,0,0-6.236-6.023,12.018,12.018,0,0,0,6.236-6.022,12.017,12.017,0,0,0,6.235,6.023A12.017,12.017,0,0,0,317.117,352.531Z" transform="translate(-305.996 -335.766)"/></g><g transform="translate(261.259 346.508)"><path class="a" d="M305.648,401.625l-9.291-14.85V372.984a18.755,18.755,0,0,0-2.386-9.17l-.071-.126-2.823,1.817a15.383,15.383,0,0,1,1.933,7.478V401.8H274.632V372.159a15.26,15.26,0,0,1,2.231-7.978l6.779-11.072a.3.3,0,0,1,.244-.145.406.406,0,0,1,.191.075l3.594,6.4,2.819-1.815-3.578-6.367-.135-.2a3.613,3.613,0,0,0-2.96-1.43,3.676,3.676,0,0,0-2.967,1.649l-6.84,11.166a18.6,18.6,0,0,0-2.724,9.726v14.777l-9.229,14.752a2.028,2.028,0,0,0-.161,1.619c.135.438.547,1.765,5.156,4.016l.708.347,5.562-2.528h21.1l5.563,2.528.708-.347c4.608-2.251,5.019-3.578,5.157-4.016A2.072,2.072,0,0,0,305.648,401.625Zm-34.362.765-3.458,1.573a20.577,20.577,0,0,1-2.351-1.433l5.809-9.284Zm28.63,1.573-3.458-1.573v-9.146l5.811,9.285A20.079,20.079,0,0,1,299.916,403.963Z" transform="translate(-261.798 -349.617)"/><path class="a" d="M298.217,367.195l2.819-1.815-1.654-2.944-2.819,1.815Z" transform="translate(-269.6 -352.494)"/><rect class="a" width="12.015" height="3.347" transform="translate(16.622 56.882)"/><path class="a" d="M287.9,428.409c-3.225.172-7.033,2.556-7.152,8.709a8.92,8.92,0,0,0,.906,3.678l1.369,3.545.879-3.179a3.846,3.846,0,0,1,.8-.815v.129a21.539,21.539,0,0,0,2.447,10.114l.841,1.6,1.054-1.466c1.771-2.469,2.524-6.353,2.929-8.441.047-.24.087-.455.123-.641,1.768,1.846,2.361,2.307,3,2.345l.935.054.216-.911a24.253,24.253,0,0,0,.175-7.467A8.147,8.147,0,0,0,287.9,428.409Zm6.423,12.325q-.3-.3-.67-.688l-.371-.384a2.024,2.024,0,0,0-2.829.131c-.339.34-.416.738-.673,2.063a30.03,30.03,0,0,1-1.554,5.722,19.388,19.388,0,0,1-1.3-7.09,3.2,3.2,0,0,0-.662-2.324,1.414,1.414,0,0,0-1.037-.436,1.77,1.77,0,0,0-.434.054,4.542,4.542,0,0,0-1.567.886,4.6,4.6,0,0,1-.25-1.508c.09-4.617,2.66-6.4,5.039-6.523a5.9,5.9,0,0,1,6.181,5.3A25.318,25.318,0,0,1,294.324,440.734Z" transform="translate(-266.051 -367.298)"/><path class="a" d="M288.792,371.724a5.037,5.037,0,1,0,4.847,5.033A4.949,4.949,0,0,0,288.792,371.724Zm0,7.835a2.808,2.808,0,1,1,2.615-2.8A2.717,2.717,0,0,1,288.792,379.559Z" transform="translate(-266.768 -354.579)"/></g></g></svg>