<svg xmlns="http://www.w3.org/2000/svg" width="104" height="60" viewBox="0 0 104 60"><g><g><g><path fill="#0036d9" d="M82.576 10.338c-.788-1.517-2.228-2.736-4.02-3.406 1.792-.67 3.232-1.891 4.02-3.406.792 1.515 2.232 2.737 4.021 3.406-1.79.67-3.23 1.889-4.02 3.406zM83.24.857h-1.326c0 3.041-2.92 5.516-6.509 5.516v1.12c3.588 0 6.51 2.476 6.51 5.516h1.325c0-3.04 2.92-5.515 6.51-5.515v-1.12c-3.59 0-6.51-2.476-6.51-5.517z"/></g></g><g><g><g><path fill="#0036d9" d="M72.162 56.078v-2.815h5.23v2.815z"/></g></g><g><g><path fill="#0036d9" d="M83.634 56.078v-2.815h4.691v2.815z"/></g></g><g><g><path fill="#0036d9" d="M79.094 52.853v-3.39h2.888v3.39z"/></g></g><g><g><path fill="#0036d9" d="M79.094 59.575v-3.04h2.888v3.04z"/></g></g></g><g><path fill="#0036d9" d="M54.655 31.668H34.174l7.628-14.366 1.73-3.258h18.006l-1.274 3.258zm-.22 7.77l-.014 2.656-.02 4.14-.013 2.658-.008 1.605H32.94V35.653h21.512zM5.41 31.667l10.882-14.366h22.5l-7.626 14.366zm91.7-14.366l-7.4 14.366H57.51l5.609-14.366zm4.475 13.34l-8.548 15.593h-36v-4.141h36.53l9.303-16.97-2.33-1.276-8.546 15.59H57.036v-3.785h33.08a3.306 3.306 0 0 0 2.952-1.801l8.082-15.691a3.29 3.29 0 0 0-.115-3.248 3.295 3.295 0 0 0-2.835-1.596H64.674l.755-1.93H41.934l-1.024 1.93H15.963a3.34 3.34 0 0 0-2.648 1.318L1.427 30.326A3.303 3.303 0 0 0 1.1 33.81a3.3 3.3 0 0 0 2.974 1.843h26.21v3.784H4.41v2.657h25.874v4.14H5.455v2.658h24.83v4.263h26.751v-4.263H94.61l9.306-16.973z"/></g><g><g><path fill="#0036d9" d="M46.451 30.515l.296-1.67c-1.126-.223-2.32-.782-2.95-1.365l.73-1.188c.531.526 1.665 1.07 2.669 1.25 1.211.215 2.317-.171 2.48-1.09.148-.837-.384-1.364-1.78-2.13-2.023-1.113-2.939-2.03-2.687-3.455.246-1.378 1.644-2.208 3.46-2.102l.32-1.798 1.19.21-.308 1.736c1.123.244 2.003.745 2.475 1.132l-.727 1.164c-.428-.379-1.31-.88-2.31-1.058-1.132-.2-2.1.145-2.238.918-.132.755.28 1.214 1.972 2.14 1.972 1.044 2.773 2.113 2.532 3.471-.233 1.319-1.567 2.398-3.627 2.333l-.306 1.715z"/></g></g></g></svg>