<svg xmlns="http://www.w3.org/2000/svg" width="78" height="75" viewBox="0 0 78 75"><g><g><g><path fill="#0036d9" d="M7.145 72.218c-.787-1.55-2.222-2.798-4.006-3.481 1.784-.684 3.219-1.933 4.006-3.482.787 1.549 2.222 2.798 4.006 3.482-1.784.683-3.219 1.93-4.006 3.48zm.66-9.693h-1.32c0 3.109-2.911 5.638-6.485 5.638v1.147c3.574 0 6.485 2.529 6.485 5.637h1.32c0-3.108 2.91-5.637 6.486-5.637v-1.147c-3.576 0-6.486-2.53-6.486-5.638z"/></g></g><g><g><path fill="#0036d9" d="M73.222 14.735c-.456-.9-1.289-1.623-2.323-2.02 1.034-.396 1.867-1.12 2.323-2.02.458.9 1.29 1.624 2.325 2.02-1.035.397-1.867 1.12-2.325 2.02zm.384-5.622h-.766c0 1.803-1.688 3.27-3.763 3.27v.665c2.075 0 3.763 1.467 3.763 3.27h.766c0-1.803 1.688-3.27 3.763-3.27v-.665c-2.075 0-3.763-1.467-3.763-3.27z"/></g></g><g><g><g><path fill="#0036d9" d="M38.549.444c22.818 0 27.751 6.102 28.66 9.739.099.397.149.804.149 1.213v19.796a34.804 34.804 0 0 1-17.719 30.297l-8.638 4.859a5 5 0 0 1-4.903 0l-8.639-4.86A34.806 34.806 0 0 1 9.74 31.193V11.396c0-1.074.414-4.785 5.74-7.448C20.196 1.59 27.742.444 38.549.444zm0 5c-23.809 0-23.809 5.952-23.809 5.952v19.796c0 10.752 5.8 20.668 15.171 25.939l8.638 4.859 8.639-4.86a29.76 29.76 0 0 0 15.17-25.938V11.396S60.87 5.444 38.549 5.444"/></g></g></g><g><g><path fill="#0036d9" d="M37.061 42.17a2.501 2.501 0 0 1-1.768-.733L24.877 31.02a2.5 2.5 0 1 1 3.536-3.535l8.648 8.649 14.602-14.601a2.5 2.5 0 0 1 3.535 3.535L38.829 41.437a2.501 2.501 0 0 1-1.768.733z"/></g></g></g></svg>