<svg xmlns="http://www.w3.org/2000/svg" width="24" height="20" viewBox="0 0 24 20"><g><g><g><path fill="#555" d="M11.568 6.15a.754.754 0 0 0 .753-.752V3.127a.753.753 0 0 0-1.505 0v2.27c0 .416.337.754.752.754z"/></g><g><path fill="#555" d="M15.93 7.958a.744.744 0 0 0 .532-.22l1.609-1.608a.758.758 0 0 0-.003-1.065.754.754 0 0 0-1.063 0l-1.606 1.608a.746.746 0 0 0-.221.533.747.747 0 0 0 .752.752z"/></g><g><path fill="#555" d="M16.984 11.567c0 .415.338.753.753.753h2.272a.753.753 0 0 0 0-1.505h-2.272a.753.753 0 0 0-.753.752z"/></g><g><path fill="#555" d="M6.676 7.74a.756.756 0 0 0 1.063-.002.755.755 0 0 0 0-1.065L6.132 5.066a.753.753 0 0 0-1.064 1.066z"/></g><g><path fill="#555" d="M6.152 11.567a.752.752 0 0 0-.752-.752H3.127a.752.752 0 0 0 0 1.505H5.4a.753.753 0 0 0 .752-.753z"/></g><g><path fill="#555" d="M10.978 11.468c.008-.046.01-.094.028-.136a.61.61 0 0 1 .303-.311c.033-.016.071-.023.108-.033.05-.013.098-.03.151-.03a.61.61 0 0 1 .61.609c0 .038-.015.07-.022.108a.592.592 0 0 1-.156.323c-.005.005-.012.007-.017.012a.608.608 0 0 1-.415.167.606.606 0 0 1-.414-.167l-.036-.04a.62.62 0 0 1-.112-.167c-.018-.044-.021-.094-.029-.142-.005-.032-.018-.061-.018-.094 0-.035.014-.066.019-.1zm-1.484.508c.016.08.044.154.069.23.017.057.029.114.052.169.027.064.064.123.096.184.033.06.061.125.101.184.039.058.087.108.131.16.044.054.08.11.13.16.189.189.409.334.646.438.01.004.018.01.028.015.105.044.216.075.327.102.025.006.047.016.071.02a2.131 2.131 0 0 0 .847 0c.018-.002.034-.01.052-.014a2.091 2.091 0 0 0 1.02-.561c.008-.007.011-.017.018-.024a2.105 2.105 0 0 0 .366-.523 2.06 2.06 0 0 0 .194-.535l1.434-2.913a.75.75 0 0 0-.139-.861l.007-.015-.015.007a.748.748 0 0 0-.86-.14l-2.914 1.435a2.068 2.068 0 0 0-.639.249 2.135 2.135 0 0 0-.435.323l-.008.006c-.024.024-.04.052-.063.077a2.137 2.137 0 0 0-.2.245c-.033.049-.055.102-.083.153-.039.07-.081.139-.113.215-.019.047-.029.097-.045.146-.028.083-.058.165-.075.252-.008.043-.007.088-.013.13-.012.093-.028.183-.028.277 0 .089.016.173.026.259.006.05.006.1.015.15z"/></g><g><path fill="#555" d="M10.993 16.112l-.004.02-.003-.02zm1.019 0l-.004.02-.004-.02zm-.008-.26l.004-.02.003.02zm-1.018 0l.003-.02.004.02zm-1.452 1.196h4.011c.296 0 .536-.268.536-.598v-.935c0-.33-.24-.598-.536-.598H9.534c-.296 0-.536.268-.536.598v.935c0 .33.24.598.536.598z"/></g><g><path fill="#555" d="M1.506 11.567c0-5.55 4.514-10.062 10.062-10.062 5.549 0 10.063 4.513 10.063 10.062 0 2.466-.897 4.825-2.53 6.668h-1.292a.75.75 0 0 0 .26-1.231l-1.607-1.607a.753.753 0 1 0-1.064 1.065l1.605 1.604a.746.746 0 0 0 .263.169H5.871a.737.737 0 0 0 .261-.167l1.607-1.606a.755.755 0 0 0 0-1.065.755.755 0 0 0-1.065 0l-1.605 1.606a.747.747 0 0 0 .262 1.232H4.036a10.028 10.028 0 0 1-2.53-6.668zm19.498 6.668a11.498 11.498 0 0 0 2.132-6.668C23.136 5.189 17.947 0 11.568 0 5.19 0 0 5.189 0 11.567c0 2.414.756 4.726 2.133 6.668h-.098a.754.754 0 0 0-.753.753v.259c0 .415.338.753.753.753h19.067a.753.753 0 0 0 .752-.753v-.26a.753.753 0 0 0-.752-.752z"/></g></g></g></svg>