<svg xmlns="http://www.w3.org/2000/svg" width="18" height="20" viewBox="0 0 18 20"><g><g><g><path fill="#555" d="M2.865 9.77V1.135h8.92v8.633zm.037 1.165h8.853c-.089.931-.175 1.833-.263 2.735-.157 1.62-.323 3.237-.466 4.857-.025.285-.126.36-.399.359-2.203-.01-4.406-.011-6.609 0-.28.001-.372-.085-.393-.365-.06-.816-.156-1.629-.244-2.51.235 0 .434.008.631-.002.35-.017.575-.233.578-.54.003-.312-.217-.532-.56-.561-.774-.067-.775-.066-.833-.849-.006-.074 0-.15 0-.268H4.854c.583-.004.844-.172.85-.546.006-.377-.263-.562-.832-.565-.46-.002-.922.001-1.383.001h-.422zM14.79 20c.241-.196.424-.424.297-.756-.13-.34-.43-.355-.738-.353-.728.005-1.457.001-2.236.001l.051-.52c.11-1.148.237-2.295.318-3.446.028-.399.254-.348.514-.365.313-.02.328.154.312.382-.06.876.117 1.663.861 2.225.696.526 1.46.617 2.248.265.79-.352 1.264-.983 1.297-1.851.043-1.152.02-2.307.02-3.461.002-2.295-.003-4.589.005-6.884.002-.318-.084-.56-.317-.784-.59-.568-1.16-1.159-1.74-1.739-.324-.32-.66-.36-.908-.112-.246.246-.206.575.121.906.505.51 1.024 1.008 1.515 1.531a.8.8 0 0 1 .21.494c.012 3.231.01 6.462.008 9.692 0 .116-.003.232-.02.345-.094.566-.588.978-1.132.951a1.096 1.096 0 0 1-1.052-1.034c-.027-.434-.006-.871-.01-1.307-.005-.534-.187-.72-.713-.725-.342-.003-.685 0-1.068 0 .075-.774.176-1.496.208-2.22.054-1.229.082-2.459.09-3.689.014-2.256 0-4.513.011-6.769.002-.34-.09-.599-.383-.777H2.097c-.3.172-.388.433-.387.772.01 3.149-.035 6.298.026 9.445.03 1.468.252 2.931.393 4.396.13 1.363.268 2.725.402 4.087.004.048-.009.098-.017.187-.632 0-1.257-.009-1.88.004-.46.009-.738.345-.598.72.055.146.192.26.292.39H14.79z"/></g><g><path fill="#555" d="M8.943 13.5c0-.422-.006-.845.002-1.267.007-.373.227-.612.545-.617.32-.004.552.223.558.601a93.75 93.75 0 0 1 0 2.65c-.006.35-.242.578-.542.58-.322.001-.552-.234-.56-.602-.012-.448-.004-.897-.003-1.345z"/></g><g><path fill="#555" d="M5.078 3.35c.135-.009.247-.022.36-.023 1.253-.001 2.507.011 3.761-.008.33-.005.406.106.402.416-.016 1.139-.006 2.278-.008 3.417 0 .124-.014.248-.022.393H5.078zM7.36 8.684c.896 0 1.792.005 2.688-.002.458-.004.658-.203.66-.661.005-1.702.005-3.405.001-5.108 0-.501-.196-.688-.706-.689-1.779-.003-3.559-.002-5.338.001-.53 0-.717.183-.718.715-.004 1.677-.003 3.354 0 5.031.001.525.19.71.724.712.896.004 1.792.001 2.69.001z"/></g></g></g></svg>