<svg xmlns="http://www.w3.org/2000/svg" width="18" height="21" viewBox="0 0 18 21"><g><g><path fill="#555" d="M2.415 1.496a.92.92 0 0 1 .919.919.92.92 0 0 1-1.838 0 .92.92 0 0 1 .919-.92zm0 17.758a.92.92 0 1 1 .919-.918.92.92 0 0 1-.919.918zM8.568 1.496a.92.92 0 0 1 0 1.837.92.92 0 0 1 0-1.837zm0 9.798a.92.92 0 0 1 0-1.838.92.92 0 0 1 0 1.838zm0 7.96a.92.92 0 1 1 .919-.918.92.92 0 0 1-.919.918zm5.235-16.84a.92.92 0 0 1 1.838 0 .92.92 0 0 1-1.838 0zM14.722 0a2.418 2.418 0 0 0-2.415 2.415c0 1.054.685 1.974 1.667 2.295v4.917h-3.111A2.432 2.432 0 0 0 9.317 8.08V4.71a2.419 2.419 0 0 0 1.666-2.295A2.417 2.417 0 0 0 8.568 0a2.417 2.417 0 0 0-2.414 2.415c0 1.054.684 1.974 1.666 2.295v3.37a2.432 2.432 0 0 0-1.546 1.547H3.163V4.71A2.419 2.419 0 0 0 4.83 2.415 2.418 2.418 0 0 0 2.415 0 2.417 2.417 0 0 0 0 2.415C0 3.469.685 4.389 1.667 4.71v11.33A2.417 2.417 0 0 0 0 18.336a2.417 2.417 0 0 0 2.415 2.414 2.418 2.418 0 0 0 2.415-2.414 2.417 2.417 0 0 0-1.667-2.296v-4.917h3.111a2.436 2.436 0 0 0 1.546 1.546v3.37a2.416 2.416 0 0 0-1.666 2.297 2.417 2.417 0 0 0 2.414 2.414 2.417 2.417 0 0 0 2.415-2.414 2.417 2.417 0 0 0-1.666-2.296v-3.371a2.436 2.436 0 0 0 1.546-1.546h3.3a1.31 1.31 0 0 0 1.307-1.308V4.71a2.419 2.419 0 0 0 1.667-2.295A2.417 2.417 0 0 0 14.722 0z"/></g></g></svg>