<svg xmlns="http://www.w3.org/2000/svg" width="17.5" height="19.528" viewBox="0 0 17.5 19.528"><defs><style>.a{fill:#555;}</style></defs><path class="a" d="M145.375,329.516h-1.917v-1.028a.75.75,0,0,0-1.5,0v1.028H136.6v-1.028a1,1,0,0,0-2,0v1.028H132.93a2.53,2.53,0,0,0-2.528,2.528v12.444a2.531,2.531,0,0,0,2.528,2.528h12.445a2.53,2.53,0,0,0,2.527-2.528V332.044A2.529,2.529,0,0,0,145.375,329.516Zm-12.445,1.5H134.6v1.028a1,1,0,0,0,2,0v-1.028h5.361v1.028a.75.75,0,0,0,1.5,0v-1.028h1.917a1.029,1.029,0,0,1,1.027,1.028v2.806H131.9v-2.806A1.029,1.029,0,0,1,132.93,331.016Zm12.445,14.5H132.93a1.029,1.029,0,0,1-1.028-1.028V336.35h14.5v8.138A1.029,1.029,0,0,1,145.375,345.516Z" transform="translate(-130.402 -327.488)"/></svg>