<svg xmlns="http://www.w3.org/2000/svg" width="26" height="17" viewBox="0 0 26 17"><g><g><g><path fill="#555" d="M3.642 10.449H2.48a.98.98 0 0 0-.979.979v1.638h-.147V7.318h.147v1.639c0 .54.438.98.979.98h1.162c.057 0 .108-.02.162-.033v.578c-.054-.013-.105-.033-.162-.033zm16.16-3.434v5.896a.49.49 0 0 1-.035.103l-2.006 2.383-8.663.014-1.705-2.092a1.383 1.383 0 0 0-1.017-.483H5.158V7.868h.852a1.34 1.34 0 0 0 1.024-.51l1.629-2.21 7.69.006 1.338 1.426c.243.26.646.435 1.003.435zM11.235 1.5H9.597v-.146h5.748V1.5h-1.639a.98.98 0 0 0-.979.98v1.162c0 .053.019.1.031.15h-.574c.012-.05.03-.097.03-.15V2.48a.98.98 0 0 0-.979-.98zm10.992 6.63v3.589h-1.071V8.132zm2.095-1.292v6.174h-.741V6.839zm.224-1.354h-1.19a1.13 1.13 0 0 0-1.129 1.13v.162h-1.071V6.64a.98.98 0 0 0-.979-.98l-1.498-.006-1.34-1.426a1.455 1.455 0 0 0-1.002-.434H14.05c.012-.05.031-.098.031-.151v-.787h1.639a.98.98 0 0 0 .979-.98V.98A.98.98 0 0 0 15.72 0H9.222a.98.98 0 0 0-.979.98v.896c0 .54.439.98.979.98h1.638v.787c0 .053.019.1.031.15H8.663c-.382 0-.793.206-1.024.512l-1.63 2.21H4.783a.979.979 0 0 0-.979.978v1.122c-.054-.014-.105-.033-.162-.033h-.787v-1.64a.979.979 0 0 0-.979-.977H.979A.979.979 0 0 0 0 6.943v6.498c0 .54.439.98.979.98h.897a.98.98 0 0 0 .979-.98v-1.638h.787c.057 0 .108-.02.162-.033v1.44c0 .54.439.98.979.98l1.561-.014 1.705 2.092c.235.288.644.482 1.017.482h8.695c.368 0 .776-.188 1.013-.47l2.027-2.391c.179-.213.309-.525.345-.815h1.081v.162c0 .623.506 1.13 1.129 1.13h1.19c.623 0 1.13-.507 1.13-1.13V6.615c0-.623-.507-1.13-1.13-1.13z"/></g><g><path fill="#555" d="M10.462 7.722c.77 0 1.397.627 1.397 1.397a1.4 1.4 0 0 1-1.397 1.398 1.399 1.399 0 0 1 0-2.795zm0-1.355a2.755 2.755 0 0 0-2.751 2.752 2.754 2.754 0 0 0 2.751 2.75 2.754 2.754 0 0 0 2.751-2.75 2.755 2.755 0 0 0-2.751-2.752z"/></g><g><path fill="#555" d="M16.022 12.152a.627.627 0 1 1-.626.626c0-.344.281-.626.626-.626zm0-1.354c-1.092 0-1.98.889-1.98 1.98 0 1.092.888 1.98 1.98 1.98s1.98-.888 1.98-1.98c0-1.091-.888-1.98-1.98-1.98z"/></g></g></g></svg>