<svg xmlns="http://www.w3.org/2000/svg" width="20" height="18" viewBox="0 0 20 18"><g><g><g><path fill="#0036d9" d="M19.35 7.208h-2.98V4.229a.412.412 0 0 0-.411-.412h-.849a.412.412 0 0 0-.412.412v2.979h-2.98a.413.413 0 0 0-.412.413v.848c0 .228.185.413.412.413h2.98v2.98c0 .228.184.412.412.412h.849a.412.412 0 0 0 .411-.412v-2.98h2.98a.413.413 0 0 0 .412-.413v-.848a.413.413 0 0 0-.412-.413z"/></g><g><path fill="#0036d9" d="M4.34 2.054a1.37 1.37 0 0 1 1.054-.487h.046c1.159.035 2.268 1.326 2.472 2.879.114.87-.08 1.687-.516 2.185-.28.32-.64.488-1.067.488h-.02c-1.134-.035-2.267-1.376-2.47-2.927-.113-.867.069-1.646.5-2.138zM2.716 13.699c0-1.233 1.565-2.314 3.35-2.314h.048c.388.005.767.062 1.124.172l.354.242c.827.563 1.373.935 1.525 1.532.036.15.054.3.054.446 0 1.535-1.145 2.313-3.403 2.313-1.712 0-3.052-1.05-3.052-2.391zm6.62-3.879C8.71 9.377 8.14 8.726 8.13 8.526c0-.364.033-.539.85-1.175 1.055-.827 1.637-1.913 1.637-3.062 0-1.041-.318-1.966-.86-2.616h.42a.41.41 0 0 0 .242-.078l1.172-.849a.413.413 0 0 0-.24-.746H6.107C5.534 0 4.952.101 4.38.298 2.47.957 1.133 2.585 1.133 4.256c0 2.368 1.835 4.162 4.286 4.219a2.23 2.23 0 0 0-.072.553c0 .365.093.71.283 1.045h-.067c-2.338 0-4.447 1.147-5.248 2.853A3.13 3.13 0 0 0 0 14.262c0 .43.11.845.328 1.234.503.9 1.584 1.6 3.045 1.968.754.19 1.564.288 2.406.288.756 0 1.477-.098 2.143-.29 2.078-.604 3.421-2.133 3.421-3.899 0-1.694-.545-2.708-2.006-3.743z"/></g></g></g></svg>