<svg xmlns="http://www.w3.org/2000/svg" width="12" height="17" viewBox="0 0 12 17"><g><g><g><g><path fill="#0036d9" d="M11 5c0 2.762-2.236 5-5 5S1 7.762 1 5s2.236-5 5-5 5 2.238 5 5zM6 2C4.346 2 3 3.346 3 5s1.346 3 3 3 3-1.346 3-3-1.346-3-3-3"/></g></g><g><g><g><path fill="#0036d9" d="M12 15c0 1-2.482 2-6 2-3.75 0-6-1-6-2 0-2 2.25-4 6-4 3.646 0 6 2 6 4zm-6-2c-2.041 0-3.359.743-3.818 1.458C2.794 14.695 4.016 15 6 15c1.814 0 3.1-.295 3.783-.555C9.301 13.771 8.021 13 6 13"/></g></g></g></g></g></svg>