<svg xmlns="http://www.w3.org/2000/svg" width="15" height="25" viewBox="0 0 15 25"><g><g><g><path fill="#0036d9" d="M10.795 23.295H3.977a2.28 2.28 0 0 1-2.272-2.272v-.568h11.363v.568a2.28 2.28 0 0 1-2.273 2.272zM3.977 1.705h6.818c1.08 0 1.932.738 2.216 1.704H1.761c.284-.966 1.137-1.704 2.216-1.704zM1.705 5.114h11.363V18.75H1.705zm13.068-1.137A3.953 3.953 0 0 0 10.795 0H3.977A3.953 3.953 0 0 0 0 3.977v17.046A3.953 3.953 0 0 0 3.977 25h6.818a3.953 3.953 0 0 0 3.978-3.977z"/></g><g><path fill="#0036d9" d="M6.226 21.783a.877.877 0 1 1 1.755 0 .877.877 0 0 1-1.755 0z"/></g></g></g></svg>