<svg xmlns="http://www.w3.org/2000/svg" width="58" height="44" viewBox="0 0 58 44"><g><g><path fill="#fff" d="M21.654 33V11l17.942 11zm33.1-29.857C52.588.629 50.114.629 48.876.629 41.143 0 28.77 0 28.77 0S16.704 0 8.662.629c-1.238 0-3.713 0-5.878 2.514C1.237 5.029.62 9.429.62 9.429S0 14.457 0 19.486V24.2c0 5.343.619 10.371.619 10.371s.618 4.4 2.165 6.286c2.165 2.514 4.95 2.514 6.496 2.829C13.92 44 28.77 44 28.77 44s12.064 0 20.107-.629c1.237 0 3.712-.314 5.878-2.514 1.856-1.886 2.165-6.286 2.165-6.286s.619-5.028.619-10.057v-5.028c0-5.029-.619-10.057-.619-10.057s-.31-4.4-2.165-6.286z"/></g></g></svg>