<svg xmlns="http://www.w3.org/2000/svg" width="15" height="16" viewBox="0 0 15 16"><g><g><g><path fill="#fff" d="M5 8a2.5 2.5 0 1 1 5 0 2.5 2.5 0 0 1-5 0z"/></g><g><path fill="#fff" d="M11.875 4.25a.625.625 0 1 1 0-1.25.625.625 0 0 1 0 1.25zM7.5 11.75A3.754 3.754 0 0 1 3.75 8 3.754 3.754 0 0 1 7.5 4.25 3.754 3.754 0 0 1 11.25 8a3.754 3.754 0 0 1-3.75 3.75zM10.624.5h-6.25A4.38 4.38 0 0 0 0 4.876v6.25A4.38 4.38 0 0 0 4.376 15.5h6.25A4.38 4.38 0 0 0 15 11.124v-6.25A4.38 4.38 0 0 0 10.624.5z"/></g></g></g></svg>