<svg xmlns="http://www.w3.org/2000/svg" width="775" height="478" viewBox="0 0 775 478"><g><g opacity=".2"><g opacity=".2"><path fill="#f1f2f2" d="M24.892 62.23a2.486 2.486 0 0 1-1.613-.592c-.602-.513-14.79-12.695-20.71-25.982A2.487 2.487 0 0 1 3.83 32.37a2.49 2.49 0 0 1 3.286 1.262c4.328 9.72 13.882 19.164 17.733 22.726 6.795-6.596 19.956-21.337 19.956-30.893 0-11.296-8.934-20.487-19.914-20.487-10.98 0-19.914 9.19-19.914 20.487a2.49 2.49 0 0 1-4.978 0C0 11.423 11.167 0 24.892 0c13.726 0 24.892 11.423 24.892 25.465 0 14.716-22.263 35.245-23.212 36.113a2.491 2.491 0 0 1-1.68.652z"/></g></g><g opacity=".2"><g opacity=".2"><path fill="#f1f2f2" d="M29.87 24.892a4.983 4.983 0 0 1-4.978 4.979 4.983 4.983 0 0 1-4.978-4.979 4.983 4.983 0 0 1 4.978-4.978 4.983 4.983 0 0 1 4.979 4.978zm4.98 0c0-5.491-4.467-9.957-9.958-9.957-5.491 0-9.957 4.466-9.957 9.957 0 5.491 4.466 9.957 9.957 9.957 5.491 0 9.957-4.466 9.957-9.957z"/></g></g><g opacity=".2"><g opacity=".2"><path fill="#f1f2f2" d="M750.057 435.048a2.486 2.486 0 0 1-1.613-.592c-.603-.513-14.791-12.695-20.71-25.982a2.487 2.487 0 0 1 1.262-3.286 2.49 2.49 0 0 1 3.285 1.262c4.33 9.72 13.883 19.164 17.734 22.726 6.795-6.596 19.956-21.337 19.956-30.893 0-11.296-8.934-20.487-19.914-20.487-10.98 0-19.914 9.19-19.914 20.487a2.49 2.49 0 0 1-4.978 0c0-14.042 11.166-25.465 24.892-25.465 13.725 0 24.892 11.423 24.892 25.465 0 14.716-22.263 35.245-23.212 36.113a2.492 2.492 0 0 1-1.68.652z"/></g></g><g opacity=".2"><g opacity=".2"><path fill="#f1f2f2" d="M755.035 397.71a4.983 4.983 0 0 1-4.978 4.979 4.983 4.983 0 0 1-4.979-4.979 4.983 4.983 0 0 1 4.979-4.978 4.983 4.983 0 0 1 4.978 4.978zm4.979 0c0-5.491-4.466-9.957-9.957-9.957-5.491 0-9.957 4.466-9.957 9.957 0 5.491 4.466 9.957 9.957 9.957 5.491 0 9.957-4.466 9.957-9.957z"/></g></g><g opacity=".2"><path fill="#f1f2f2" d="M24.832 71.52l.117 1.865c.013 0 2.614-.165 7.418-.29l-.05-1.866c-4.856.127-7.485.291-7.485.291z"/></g><g opacity=".2"><path fill="#f1f2f2" d="M327.375 147.344a351.028 351.028 0 0 1 12.155 8.19l1.075-1.526a354.839 354.839 0 0 0-12.22-8.234z"/></g><g opacity=".2"><path fill="#f1f2f2" d="M275.816 119.485a423.36 423.36 0 0 1 13.27 6.25l.826-1.675a426.986 426.986 0 0 0-13.33-6.278z"/></g><g opacity=".2"><path fill="#f1f2f2" d="M302.122 132.454a388.158 388.158 0 0 1 12.772 7.199l.948-1.608a384.927 384.927 0 0 0-12.837-7.234z"/></g><g opacity=".2"><path fill="#f1f2f2" d="M373.687 183.134a314.921 314.921 0 0 1 10.502 10.204l1.332-1.307a316.332 316.332 0 0 0-10.565-10.263z"/></g><g opacity=".2"><path fill="#f1f2f2" d="M351.321 164.229a327.112 327.112 0 0 1 11.398 9.202l1.205-1.426a330.803 330.803 0 0 0-11.463-9.255z"/></g><g opacity=".2"><path fill="#f1f2f2" d="M394.193 204.029a303.268 303.268 0 0 1 9.474 11.16l1.454-1.173a307.05 307.05 0 0 0-9.534-11.23z"/></g><g opacity=".2"><path fill="#f1f2f2" d="M248.673 108.336a466.969 466.969 0 0 1 13.661 5.352l.712-1.725a464.032 464.032 0 0 0-13.72-5.377z"/></g><g opacity=".2"><path fill="#f1f2f2" d="M163.898 84.7c4.809.94 9.645 1.947 14.38 2.995l.403-1.824c-4.747-1.05-9.6-2.061-14.425-3.002z"/></g><g opacity=".2"><path fill="#f1f2f2" d="M76.437 73.875c4.87.269 9.81.597 14.673.976l.147-1.862a661.77 661.77 0 0 0-14.718-.978z"/></g><g opacity=".2"><path fill="#f1f2f2" d="M220.879 98.897a505.886 505.886 0 0 1 13.967 4.513l.602-1.768a510.058 510.058 0 0 0-14.022-4.53z"/></g><g opacity=".2"><path fill="#f1f2f2" d="M105.757 76.16c4.844.488 9.758 1.038 14.61 1.633l.228-1.852a672.478 672.478 0 0 0-14.651-1.638z"/></g><g opacity=".2"><path fill="#f1f2f2" d="M47.026 72.962c4.8.027 9.75.121 14.712.278l.06-1.867a575.109 575.109 0 0 0-14.762-.278z"/></g><g opacity=".2"><path fill="#f1f2f2" d="M192.579 91.05a562.844 562.844 0 0 1 14.206 3.732l.497-1.8a543.348 543.348 0 0 0-14.253-3.741z"/></g><g opacity=".2"><path fill="#f1f2f2" d="M412.578 226.798a300.157 300.157 0 0 1 8.332 12.03l1.558-1.025a300.638 300.638 0 0 0-8.384-12.105z"/></g><g opacity=".2"><path fill="#f1f2f2" d="M134.933 79.76c4.844.709 9.726 1.483 14.512 2.297l.314-1.84c-4.8-.816-9.698-1.593-14.557-2.307z"/></g><g opacity=".2"><path fill="#f1f2f2" d="M630.395 475.966l-.082 1.867c2.531.107 5.143.164 7.756.167 2.355 0 4.693-.047 7.015-.135l-.072-1.866c-4.847.181-9.855.171-14.617-.033z"/></g><g opacity=".2"><path fill="#f1f2f2" d="M547.24 450.37a158.512 158.512 0 0 0 12.54 7.806l.91-1.628a157.37 157.37 0 0 1-12.39-7.714z"/></g><g opacity=".2"><path fill="#f1f2f2" d="M573.004 464.765a154.804 154.804 0 0 0 13.797 5.28l.583-1.775a151.666 151.666 0 0 1-13.631-5.218z"/></g><g opacity=".2"><path fill="#f1f2f2" d="M601.045 473.977a162.829 162.829 0 0 0 14.547 2.582l.244-1.852a158.913 158.913 0 0 1-14.378-2.554z"/></g><g opacity=".2"><path fill="#f1f2f2" d="M659.599 474.893l.209 1.857c4.796-.545 9.71-1.279 14.602-2.178l-.339-1.837c-4.851.894-9.72 1.62-14.472 2.158z"/></g><g opacity=".2"><path fill="#f1f2f2" d="M716.286 460.77l.664 1.745a253.488 253.488 0 0 0 13.631-5.66l-.769-1.704a250.722 250.722 0 0 1-13.526 5.619z"/></g><g opacity=".2"><path fill="#f1f2f2" d="M688.372 469.614l.455 1.807a241.067 241.067 0 0 0 14.194-4.04l-.565-1.78c-4.66 1.481-9.4 2.83-14.084 4.013z"/></g><g opacity=".2"><path fill="#f1f2f2" d="M442.267 277.15a318.241 318.241 0 0 1 5.877 13.407l1.725-.712a318.72 318.72 0 0 0-5.911-13.484z"/></g><g opacity=".2"><path fill="#f1f2f2" d="M455.161 303.59l-1.754.633c.985 2.74 1.936 5.513 2.867 8.316.622 1.88 1.247 3.739 1.88 5.578l1.764-.607a467.41 467.41 0 0 1-1.872-5.556 346.956 346.956 0 0 0-2.885-8.364z"/></g><g opacity=".2"><path fill="#f1f2f2" d="M428.646 251.254a303.441 303.441 0 0 1 7.117 12.783l1.653-.867a302.842 302.842 0 0 0-7.162-12.864z"/></g><g opacity=".2"><path fill="#f1f2f2" d="M463.17 331.957c1.78 4.66 3.626 9.253 5.498 13.659l1.715-.73a400.58 400.58 0 0 1-5.469-13.596z"/></g><g opacity=".2"><path fill="#f1f2f2" d="M488.49 385.075a268.162 268.162 0 0 0 7.878 12.453l1.55-1.04a265.636 265.636 0 0 1-7.825-12.366z"/></g><g opacity=".2"><path fill="#f1f2f2" d="M504.968 409.502a218.347 218.347 0 0 0 9.365 11.393l1.399-1.235a212.588 212.588 0 0 1-9.28-11.296z"/></g><g opacity=".2"><path fill="#f1f2f2" d="M524.491 431.596a179.41 179.41 0 0 0 10.973 9.87l1.192-1.44a176.535 176.535 0 0 1-10.863-9.767z"/></g><g opacity=".2"><path fill="#f1f2f2" d="M474.687 359.055a321.395 321.395 0 0 0 6.594 13.173l1.65-.876a319.388 319.388 0 0 1-6.556-13.096z"/></g><g opacity=".2"><path fill="#f1f2f2" d="M749.566 445.043c-.024.012-2.322 1.431-6.447 3.622l.874 1.647c4.19-2.222 6.46-3.624 6.554-3.686z"/></g></g></svg>