<svg xmlns="http://www.w3.org/2000/svg" width="65" height="30" viewBox="0 0 65 30"><g><g><g><path fill="#bac0cb" d="M9.541 11.116c-.26 5.205-6.679 5.952-8.227 4.608-.858-.802-1.605-1.865-.467-5.485 0 0 2.874-.802 2.743.728-.13 1.53-2.015 3.88-1.53 4.216 1.138.597 4.478-.336 4.478-3.283 0-2.948-4.347-2.612-4.142-6.362C2.582 1.415 6.873.22 8.944.277c1.474.074 2.332.877 1.605 2.742-.802 2.146-.541 2.538-.541 2.538s-1.81.932-2.668-.131c-.933-1.138 1.604-3.62.54-4.216-.95-.467-2.947.802-2.947 3.414.056 2.817 4.813 2.015 4.608 6.492z"/></g><g><path fill="#bac0cb" d="M16.252 4.232c.876-.336 1.679-.802 2.276-1.4 0 0 1.138.206.877 1.4-.262 1.007-1.474 1.604-3.676 1.81-.727 2.612-1.399 5.746-1.679 7.35-.205 1.4 0 2.332 0 2.332s-1.399.541-2.145.206c-.877-.41-.597-2.277-.075-4.74.336-1.604.728-3.208 1.063-5.074-.802-.074-1.399-.205-1.604-.41-.597-.672.13-1.343.13-1.343s.877.26 1.736.335c.13-.932.26-1.94.41-3.078v-.074c2.687-.467 3.284.54 2.687 2.686z"/></g><g><path fill="#bac0cb" d="M20.028 20.629zm0 0c-1.885 5.82-3.88 9.235-5.43 8.489-1.809-1.008-1.268-4.814 1.008-6.754 1.008-.933 2.687-1.604 4.422-1.735zm2.798-2.127c.746-1.94 1.343-4.011 1.96-6.082 1.193-4.477 0-5.336-1.941-4.608-.187 0-.261.075-.261.075s.26.933 0 2.332l-.206.933c-1.063 3.078-2.742 5.223-3.675 5.223-.727 0 .075-1.94.877-4.216.672-1.884 1.138-3.88 0-4.552-1.063-.597-2.537.205-2.537.205s.597 1.064-.41 4.347c-1.139 3.806-.878 5.28.802 5.41 1.53.056 3.003-1.138 4.272-3.414-.336 1.53-.653 3.004-1.064 4.347-2.276.187-4.477 1.064-5.82 2.202-3.47 2.929-4.067 8.022-1.064 9.085 3.21 1.138 5.952-3.06 8.284-9.085 1.119.205 2.257.746 3.134 1.679 1.66 1.79 1.4 4.608 1.4 4.608s2.275-.672 2.48-2.948c.131-1.474-1.007-3.34-2.817-4.477-1.007-.597-2.201-.933-3.414-1.064z"/></g><g><path fill="#bac0cb" d="M28.422 13.392c-.205 1.4 0 2.332 0 2.332s-1.399.541-2.145.206c-.877-.41-.597-2.277-.075-4.74.597-2.742 1.735-6.678 2.146-10.894V.22c3.003-.13 3.544.802 2.612 3.545-.99 3.134-2.202 7.742-2.538 9.626z"/></g><g><path fill="#bac0cb" d="M33.132 11.024c.671-2.481 2.332-4.16 3.209-3.75.205.075.13.672-.467 1.81-.671 1.194-1.753 2.798-3.283 4.141.13-.671.26-1.399.54-2.201zm5.28-2.146c0-.13 0-1.268-1.418-2.145-1.549-1.082-5.765.186-6.829 4.272-.858 3.284.41 5.299 2.015 5.56 1.885.26 3.284-1.008 4.422-2.276.466-.541-.41-.41-.41-.336-1.008 1.138-1.997 1.884-2.874 1.679-.466-.13-.727-.802-.727-1.735 3.209-1.474 5.41-3.489 5.82-5.019z"/></g><g><path fill="#bac0cb" d="M41.956 11.116zm0 0a99.075 99.075 0 0 1 1.735-6.753c.522-1.997 0-2.612-1.213-2.873l-.672-.075c.336-.13.747-.261 1.213-.336 3.88-.261 4.272 2.35 3.545 5.019-.672 2.35-2.743 4.347-4.608 5.018zM41.62 1.49c-1.008 4.197-2.743 11.361-2.799 11.977-.335 1.865.392 3.078 2.071 2.668a7.57 7.57 0 0 1 .597-.206s-.205-.858 0-2.332c.075-.466.206-1.063.336-1.735 4.011-.671 7.015-3.152 7.892-6.026.877-3.003-1.194-6.082-5.41-5.82-3.545.28-5.747 1.548-6.157 2.612-.467 1.194.466 1.865 1.063 1.865 0 0 .728-2.07 2.407-3.003z"/></g><g><path fill="#bac0cb" d="M52.22 6.228c.859.261 1.792-.13 2.146-.933.187-.802-.28-1.679-1.213-1.94-.932-.28-1.81.13-2.07.933-.262.802.26 1.679 1.138 1.94zm-2.873 4.944c-.746 2.481-1.007 4.216.056 4.683 1.008.522 2.146-.205 2.146-.205s-.261-.803 0-2.276c.205-1.269.672-2.799 1.138-3.937.802-1.94 0-2.948-2.07-2.742 0 0-.86 2.947-1.27 4.477z"/></g><g><path fill="#bac0cb" d="M59.338 9.978c2.482-2.015 3.34-4.011 3.079-5.485-.075-.205-.075-.261-.075-.261s.075-.075.205-.13c1.064-.672 2.948-.411 2.332 1.678-.54 1.94-2.276 3.937-4.944 5.616.728 1.68 1.605 3.414 2.612 4.478l-.13.13c-1.008.877-2.612.41-3.676-1.4a22.514 22.514 0 0 1-1.007-1.809c-1.68 1.474-1.81 3.34-1.81 3.62 0 0-.074.074-.205.074-1.735.672-2.612.13-2.407-.802.206-1.213 1.138-2.481 2.817-3.414.336-.205.728-.41 1.064-.597-.802-1.81-1.418-3.62-2.146-4.608-.335-.41-.858-.672-.858-.672s.075-.075.205-.075c1.68-.727 3.004-.671 3.937 1.4.336.522.671 1.38 1.007 2.257z"/></g><g><g><path fill="#bac0cb" d="M35.384 25.237c.13-.41.28-1.175.447-2.276h.69l-.28 2.276zm1.38 2.202h1.38l.262-2.22h-.56l.41-3.359h-3.768a30.4 30.4 0 0 1-.373 2.276c-.093.41-.205.765-.373 1.082h-.485l-.261 2.22h1.38l.13-1.138h2.389z"/></g><g><path fill="#bac0cb" d="M38.984 22.01c.28-.168.579-.262.896-.262.317 0 .522.075.653.224.112.13.149.355.112.69l-.15 1.25h.038l1.604-2.052h1.4l-.411 3.34c-.056.429-.037.746.037.951-.28.168-.578.261-.895.261-.299 0-.523-.074-.653-.223-.112-.131-.15-.374-.094-.71l.15-1.324h-.038L39.992 26.3H38.63l.41-3.339c.019-.448.019-.765-.056-.951z"/></g><g><path fill="#bac0cb" d="M44.973 23.726h.727c.206 0 .336-.019.43-.075.112-.056.168-.168.186-.317.019-.13 0-.242-.056-.317-.074-.093-.242-.13-.485-.15-.205 0-.392.038-.522.094-.13.075-.205.187-.187.373a.798.798 0 0 1-.522.168c-.187 0-.317-.037-.41-.15-.094-.092-.131-.242-.113-.428.038-.448.318-.765.859-.99.335-.13.765-.186 1.268-.186.56 0 .97.075 1.269.224.373.168.54.448.504.84-.019.224-.094.41-.206.597a.808.808 0 0 1-.485.373v.019c.224.056.392.167.485.354.094.187.131.41.112.672a1.51 1.51 0 0 1-.709 1.156c-.429.28-.97.41-1.66.41-.597 0-1.063-.093-1.4-.28-.26-.167-.391-.354-.391-.559 0-.13.037-.28.112-.448a.671.671 0 0 1 .298-.335c.206.168.374.28.541.354a2.2 2.2 0 0 0 .859.168c.447.019.671-.13.727-.41.019-.112 0-.187-.037-.243-.075-.075-.187-.093-.355-.093h-.932z"/></g><g><path fill="#bac0cb" d="M50.029 23.763c.018-.298.093-.522.205-.653.112-.13.28-.186.522-.186.206 0 .355.037.448.112.093.093.112.223.093.447-.018.15-.037.355-.074.635-.038.28-.056.485-.075.634-.019.224-.093.373-.205.448-.112.074-.261.112-.485.112-.224 0-.392-.056-.467-.187-.074-.13-.093-.336-.056-.653.038-.317.075-.54.094-.709zm2.444-1.903c-.373 0-.653.13-.821.355-.317-.299-.746-.448-1.269-.43a1.94 1.94 0 0 0-1.455.69c-.317.393-.522.915-.597 1.53-.093.766-.037 1.325.205 1.698.243.43.672.653 1.288.69.28.02.578-.018.876-.13.131-.037.299-.112.485-.242.038.074.075.13.131.168.037.056.112.074.187.093.074 0 .13.019.186.019h.858l.541-4.44z"/></g><g><path fill="#bac0cb" d="M55.607 19.827c-.243-.038-.43.037-.616.224a.795.795 0 0 0-.224.615c.02.299.15.523.43.672.28.15.615.205 1.063.15.354-.057.672-.187.951-.43.28-.242.486-.541.616-.895l-.597-.262c-.205.318-.448.485-.765.523-.466.056-.746-.13-.858-.597zm-1.996 2.183c.074.205.093.522.018.951l-.41 3.34h1.362l1.642-2.146h.037l-.168 1.325c-.037.335 0 .578.112.709.13.149.354.223.653.223.317 0 .616-.093.895-.26-.055-.206-.074-.505-.018-.952l.41-3.34h-1.399l-1.604 2.052h-.038l.15-1.25c.055-.335.018-.56-.094-.69-.13-.15-.336-.224-.653-.224s-.615.094-.895.262z"/></g><g><path fill="#bac0cb" d="M58.872 22.98c.056-.448.037-.765-.019-.952.28-.168.579-.261.896-.261.298 0 .503.075.634.224.112.13.15.373.112.709-.037.224-.075.54-.13.989h1.193l.224-1.81h1.586l-.43 3.34c-.055.447-.036.764.038.95-.26.169-.56.262-.895.262-.299 0-.523-.075-.635-.242-.112-.131-.149-.355-.112-.69.02-.113.038-.225.056-.374.02-.15.038-.261.038-.354h-1.194l-.187 1.548h-1.586z"/></g></g></g></g></svg>