<svg xmlns="http://www.w3.org/2000/svg" width="17" height="14" viewBox="0 0 17 14"><g><g><path fill="#fff" d="M6.119 11.756zm0 0c-.211-.738-.527-1.475-.738-2.212-.21-.527-.316-1.159-.526-1.685-.106-.106 0-.211.105-.316 2.633-1.58 5.161-3.266 7.69-4.846.104-.105.315-.21.42-.21.106-.106.211 0 .316 0 0 .105 0 .21-.105.316-1.264 1.053-2.423 2.106-3.581 3.16L6.54 8.807c-.105.105-.21.21-.21.42 0 .844-.106 1.58-.106 2.423zm2.633-1.054s.105.106.105.211l3.476 2.528c.737.527 1.264.316 1.475-.527.737-3.58 1.474-7.057 2.212-10.638 0-.421.21-.948.21-1.37.106-.737-.421-1.052-1.053-.842-3.37 1.37-6.846 2.633-10.322 4.003L.747 5.647c-.21.105-.421.21-.632.421-.21.105-.105.421.105.527.106.105.316.21.421.316 1.16.316 2.212.737 3.371 1.053.105 0 .21.105.21.21.527 1.37.949 2.844 1.475 4.32.106.21.211.315.422.315.316 0 .526-.105.737-.316.632-.632 1.264-1.159 1.896-1.79z"/></g></g></svg>