<svg xmlns="http://www.w3.org/2000/svg" width="21" height="18" viewBox="0 0 21 18"><g><g><path fill="#0036d9" d="M7.78 14.948c-.268-.937-.67-1.875-.937-2.812-.268-.67-.402-1.474-.67-2.143-.134-.134 0-.268.134-.402 3.348-2.01 6.563-4.152 9.777-6.161.134-.134.402-.268.536-.268.134-.134.268 0 .402 0 0 .134 0 .268-.134.402-1.608 1.34-3.08 2.678-4.554 4.018l-4.018 3.616c-.134.134-.268.268-.268.536 0 1.071-.134 2.009-.134 3.08l-.134.134zm3.348-1.34s.134.135.134.269l4.42 3.214c.938.67 1.607.402 1.875-.67.938-4.553 1.875-8.973 2.813-13.527 0-.536.268-1.205.268-1.741.134-.938-.536-1.34-1.34-1.072-4.285 1.742-8.705 3.349-13.125 5.09L.949 7.18c-.267.134-.535.268-.803.536-.268.134-.134.535.134.67.134.133.402.267.535.401 1.474.402 2.813.938 4.286 1.34.134 0 .268.134.268.267.67 1.742 1.206 3.617 1.875 5.492.134.268.268.402.536.402.402 0 .67-.134.938-.402.803-.804 1.607-1.474 2.41-2.277z"/></g></g></svg>