<svg xmlns="http://www.w3.org/2000/svg" width="21" height="17" viewBox="0 0 21 17"><g><g><path fill="#0036d9" d="M18.232 2.654c.927-.57 1.54-1.346 1.841-2.334-.901.479-1.8.807-2.697.988C16.569.44 15.548 0 14.324 0c-1.196 0-2.207.42-3.032 1.237-.82.822-1.235 1.822-1.235 2.989 0 .354.045.67.135.94C6.662 5.044 3.742 3.58 1.44.762c-.39.69-.585 1.392-.585 2.118 0 1.493.63 2.675 1.887 3.544-.717-.06-1.35-.242-1.887-.54 0 1.067.313 1.957.94 2.74a4.156 4.156 0 0 0 2.427 1.482 4.523 4.523 0 0 1-1.123.135c-.358 0-.612-.03-.762-.095a4.053 4.053 0 0 0 1.481 2.112 4.19 4.19 0 0 0 2.47.852c-1.529 1.2-3.276 1.793-5.253 1.793-.484 0-.827-.007-1.035-.044 1.947 1.264 4.114 1.892 6.512 1.892 2.454 0 4.623-.622 6.51-1.866 1.887-1.236 3.28-2.762 4.175-4.56.9-1.793 1.345-3.661 1.345-5.612v-.537c.87-.654 1.573-1.39 2.11-2.204a9.342 9.342 0 0 1-2.42.68z"/></g></g></svg>