<svg xmlns="http://www.w3.org/2000/svg" width="25" height="15" viewBox="0 0 25 15"><g><g><path fill="#0036d9" d="M20.408 8.16c.245-.46 1.112-1.775 1.764-2.754 1.959-2.897 2.316-3.509 2.316-3.876a.51.51 0 0 0-.51-.51h-4.59a.51.51 0 0 0-.5.418c-.255 1.408-3.56 5.447-4.08 5.702-.214 0-.51-.53-.51-1.53V1.306a1.207 1.207 0 0 0-.245-.949C13.707 0 13.186 0 11.738 0c-2.631 0-3.57.785-3.57 1.53a.469.469 0 0 0 .427.508l.032.002s.561.367.561 2.55c.029.852-.015 1.705-.132 2.55-1.296-.235-3.09-3.468-3.948-5.794a.508.508 0 0 0-.51-.326H.518a.51.51 0 0 0-.51.602C.58 4.702 7.056 14.28 11.228 14.28h2.04c1.081 0 1.163-1.173 1.224-1.949.061-.775.112-1.111.306-1.111.632 0 1.928 1.122 2.774 1.856.847.734 1.398 1.203 1.816 1.203h2.55c1.315 0 2.55 0 2.55-1.02 0-.387-.337-.836-2.275-3.06-.642-.703-1.51-1.672-1.805-2.04z"/></g></g></svg>